<svg width="153" height="71" viewBox="0 0 153 71" fill="none" xmlns="http://www.w3.org/2000/svg">
<path d="M135.188 70.2473V14.4007H152.198V70.2473H135.188Z" fill="#7D0A0A"/>
<path d="M110.639 70.2474V29.0774H127.648V70.2474H110.639ZM119.144 25.7657C116.033 25.7657 113.549 24.9378 111.692 23.282C109.836 21.6262 108.908 19.5689 108.908 17.1103C108.908 14.6516 109.836 12.5943 111.692 10.9385C113.549 9.28269 116.033 8.45477 119.144 8.45477C122.254 8.45477 124.738 9.23251 126.595 10.788C128.451 12.3435 129.38 14.3505 129.38 16.8092C129.38 19.4184 128.451 21.576 126.595 23.282C124.738 24.9378 122.254 25.7657 119.144 25.7657Z" fill="#7D0A0A"/>
<path d="M84.1965 71C79.1788 71 74.7883 70.0717 71.0251 68.2152C67.312 66.3586 64.4269 63.8247 62.3696 60.6134C60.3124 57.3519 59.2838 53.689 59.2838 49.6247C59.2838 45.46 60.2873 41.7721 62.2944 38.5607C64.3516 35.3494 67.1364 32.8406 70.6488 31.0342C74.2113 29.2279 78.2004 28.3247 82.6159 28.3247C86.6802 28.3247 90.4184 29.1275 93.8304 30.7332C97.2926 32.3388 100.052 34.7222 102.11 37.8834C104.217 41.0445 105.271 44.9583 105.271 49.6247C105.271 50.2268 105.246 50.9042 105.195 51.6569C105.145 52.3593 105.095 53.0116 105.045 53.6138H73.3583V45.4099H96.0131L89.6156 47.5926C89.6156 45.9869 89.3145 44.6321 88.7124 43.5282C88.1604 42.3742 87.3827 41.4961 86.3792 40.894C85.3756 40.2417 84.1714 39.9155 82.7664 39.9155C81.3615 39.9155 80.1322 40.2417 79.0785 40.894C78.0749 41.4961 77.2972 42.3742 76.7452 43.5282C76.1933 44.6321 75.9173 45.9869 75.9173 47.5926V50.1516C75.9173 51.9077 76.2686 53.413 76.971 54.6675C77.6735 55.9219 78.677 56.8752 79.9816 57.5275C81.2862 58.1297 82.8668 58.4307 84.7233 58.4307C86.63 58.4307 88.1855 58.1798 89.3898 57.6781C90.6442 57.1763 91.9488 56.4237 93.3035 55.4201L102.185 64.3767C100.178 66.5342 97.694 68.1901 94.7336 69.3441C91.8233 70.448 88.311 71 84.1965 71Z" fill="#7D0A0A"/>
<path d="M37.343 58.8838L37.343 47.5203L41.4923 47.5203L41.4923 59.9169L53.9399 59.9169L53.9399 26.8593L41.4923 26.8593L41.4923 39.2559L37.343 39.2559L37.343 11.1569C37.343 7.02473 33.1938 2.89252 29.0446 2.06608L1.07e-05 -9.98718e-06L7.62939e-06 70.2473L29.0446 67.9746C33.1938 67.9746 37.343 63.8424 37.343 58.8838ZM29.0446 30.9915L20.7461 30.9915L20.7461 10.3305L29.0446 10.3305L29.0446 30.9915ZM29.0446 59.9168L24.8954 59.9168L24.8954 51.6525L29.0446 51.6525L29.0446 59.9168ZM29.0446 47.5203L24.8954 47.5203L24.8954 39.2559L29.0446 39.2559L29.0446 47.5203ZM20.7461 59.9168L16.5969 59.9168L16.5969 51.6525L20.7461 51.6525L20.7461 59.9168ZM20.7461 47.5203L16.5969 47.5203L16.5969 39.2559L20.7461 39.2559L20.7461 47.5203ZM12.4477 59.9168L8.29846 59.9168L8.29846 51.6525L12.4477 51.6525L12.4477 59.9168ZM12.4477 47.5203L8.29846 47.5203L8.29846 39.2559L12.4477 39.2559L12.4477 47.5203ZM49.7907 55.7847L45.6415 55.7847L45.6415 30.9915L49.7907 30.9915L49.7907 55.7847Z" fill="#7D0A0A"/>
</svg>
